<?xml version="1.0" encoding="UTF-8"?><svg id="Layer_1" xmlns="http://www.w3.org/2000/svg" viewBox="0 0 294.04 369.67">
	<defs>
		<style>.cls-1{stroke:#cf604e;}.cls-1,.cls-2{fill:none;stroke-miterlimit:10;stroke-width:2px;}.cls-2{stroke:#fff;}.cls-3,.cls-4,.cls-5,.cls-6,.cls-7,.cls-8,.cls-9,.cls-10,.cls-11,.cls-12,.cls-13,.cls-14,.cls-15{stroke-width:0px;}.cls-4{fill:#f7bf9c;}.cls-5{fill:#4e5ea8;}.cls-6{fill:#484841;}.cls-7{fill:#19a572;}.cls-8{fill:#231d23;}.cls-9{fill:#231f20;}.cls-10{fill:#e36656;}.cls-11{fill:#fff;}.cls-12{fill:#ef8e6f;}.cls-13{fill:#ebe7e1;}.cls-14{fill:#eb8c6a;}.cls-15{fill:#f68c6d;}
		</style>
	</defs>
	<defs>
	  <clipPath id="clip-boca">
	    <path id="clip-shape" d="M147.71,171.75c10.17,0,16.2-5.69,16.2-5.69,1.32-.83-6.52,5.65-16.2,5.69s-18.46-5.76-16.78-4.37c0,0,6.74,4.37,16.78,4.37Z" />
	  </clipPath>
	</defs>
	<path id="pelo" class="cls-5" d="m287.46,276.02c-6.75-22.78-28.36-27.34-31.73-56.64-3.38-29.29,20.93-44.27,10.13-72.91-10.8-28.64-33.08-31.25-39.16-48.17-6.08-16.93,2.03-93.09-79.67-98.3-81.7,5.21-73.6,81.37-79.67,98.3s-28.36,19.53-39.16,48.17c-10.8,28.64,13.5,43.62,10.13,72.91-3.38,29.29-24.98,33.85-31.73,56.64-6.75,22.78,10.13,44.92,10.13,44.92,52.06,54.38,130.31,24.51,130.31,24.51,0,0,74.51,32.84,130.31-24.51,0,0,16.88-22.13,10.13-44.92Z"/>
	<g id="cuerpo">
		<path class="cls-7" d="m93.86,273.04s.04.02.1.06c.06-.12-.1-.06-.1-.06Z"/>
		<path class="cls-7" d="m200.08,273.1c.06-.04.1-.06.1-.06,0,0-.16-.05-.1.06Z"/>
		<path class="cls-7" d="m276.48,327.88c-17.11-18.67-49-35.83-66.24-47.43-8.55-5.75-10.03-7.07-10.17-7.36-1.12.65-11.73,6.74-24.01,9.74-11.66,2.86-23.49,4.18-29.05,4.07-6.01.02-17.39-1.22-29.05-4.07-12.27-3.01-22.88-9.09-24.01-9.74-.14.28-1.62,1.6-10.17,7.36-17.24,11.59-49.13,28.75-66.24,47.43C-2.1,349.34.07,369.67.07,369.67h293.9s2.18-20.33-17.49-41.79Z"/>
		<path class="cls-12" d="m182.77,244.69c-4.19-16.57-3.05-41.52-3.05-41.52v-33.5h-65.41v33.5s1.14,24.95-3.05,41.52c-4.19,16.57-17.3,28.4-17.3,28.4,0,0,11.72,6.26,24.01,9.74,12.29,3.48,29.05,4.07,29.05,4.07,0,0,16.76-.59,29.05-4.07,12.29-3.48,24.01-9.74,24.01-9.74,0,0-13.11-11.83-17.3-28.4Z"/>
		<path class="cls-10" d="m180.7,231.97c-1.03-9.44-1.08-19.01-1-24.4-.05-.25-.08-.38-.08-.38h0c.04-6.92.15-21.33.12-37.52h-65.41s.75,29.67.2,37.45c0,0,0,0,0,0,2.14,1.75,22.01,30.41,41.64,30.41s24.54-5.57,24.54-5.57Z"/>
	</g>
	<g id="cabeza">
		<g id="oreja_izq">
			<path class="cls-14" d="m209.78,150.49s9.88,4.94,18.22-6.8,13.28-29.03,1.54-35.83c-7.34-4.25-21.07,3.79-26.08,10.96-3.01,4.3-1.34,13.77-1.34,20.19,0,8.87,7.65,11.48,7.65,11.48Z"/>
			<path class="cls-13" d="m212.56,122.54s8.08-.74,8.6,10.66c.33,7.32-3.02,22.28-3.02,22.28l-5.57-.8,2.71-17.19c-1.59-2.87-7.8-11.3-2.71-14.96Z"/>
			<path class="cls-6" d="m218.13,155.49l-5.57-.8s-.24,2.36,2.23,2.83,3.34-2.03,3.34-2.03Z"/>
		</g>
		<g id="oreja_der">
			<path class="cls-14" d="m84,150.49s-9.88,4.94-18.22-6.8-13.28-29.03-1.54-35.83c7.34-4.25,21.07,3.79,26.08,10.96,3.01,4.3,1.34,13.77,1.34,20.19,0,8.87-7.65,11.48-7.65,11.48Z"/>
			<path class="cls-13" d="m81.22,122.54s-8.08-.74-8.6,10.66c-.33,7.32,3.02,22.28,3.02,22.28l5.57-.8-2.71-17.19c1.59-2.87,7.8-11.3,2.71-14.96Z"/>
			<path class="cls-6" d="m75.65,155.49l5.57-.8s.24,2.36-2.23,2.83-3.34-2.03-3.34-2.03Z"/>
		</g>
		<path class="cls-5" d="m203.81,30.21C183.18,0,147.02,0,147.02,0c0,0-36.16,0-56.79,30.21-22.05,32.3-11.66,84.66-11.66,84.66l28.15-76.37h80.59l28.15,76.37s10.39-52.35-11.66-84.66Z"/>
		<path class="cls-4" d="m187.41,38.98h-80.59l-28.15,76.37s2.63,102.61,68.45,102.61,68.45-102.61,68.45-102.61l-28.15-76.37Z"/>
		<path id="nariz" class="cls-15" d="m153.03,115.12c-.37-7.71-6.01-7.41-6.01-7.41,0,0-5.64-.3-6.01,7.41s-3.09,27.37-1.88,31.3c1.21,3.93,3.7,4.69,7.9,4.69s6.69-.76,7.9-4.69c1.21-3.93-1.51-23.59-1.88-31.3Z"/>
		<circle id="ojo_izq" class="cls-8" cx="114.36" cy="121.45" r="4.91"/>
		<circle id="ojo_der" class="cls-8" cx="180.47" cy="121.45" r="4.91"/>
		<path id="ceja_izq" class="cls-5" d="m99.05,95.29s5.85-5.85,13.37-5.52,15.46,5.41,12.81,7.4-4.89-2.32-12.83-1.99-8.81,4.22-12.58,2.51c-1.9-.86-.77-2.4-.77-2.4Z"/>
		<path id="ceja_der" class="cls-5" d="m195.42,95.29s-5.85-5.85-13.37-5.52-15.46,5.41-12.81,7.4,4.89-2.32,12.83-1.99,8.81,4.22,12.58,2.51c1.9-.86.77-2.4.77-2.4Z"/>
		<g id="lentes">
			<path class="cls-11" d="m112.23,95.4c-14.22,0-25.76,11.53-25.76,25.76s11.53,25.76,25.76,25.76,25.76-11.53,25.76-25.76-11.53-25.76-25.76-25.76Zm0,49.4c-12.89,0-23.34-10.45-23.34-23.34s10.45-23.34,23.34-23.34,23.34,10.45,23.34,23.34-10.45,23.34-23.34,23.34Z"/>
			<path class="cls-11" d="m181.92,95.4c-14.22,0-25.76,11.53-25.76,25.76s11.53,25.76,25.76,25.76,25.76-11.53,25.76-25.76-11.53-25.76-25.76-25.76Zm0,49.4c-12.89,0-23.34-10.45-23.34-23.34s10.45-23.34,23.34-23.34,23.34,10.45,23.34,23.34-10.45,23.34-23.34,23.34Z"/>
			<path class="cls-11" d="m147.77,114.65c3.1,0,6.06.61,8.77,1.71.13-.91.31-1.81.54-2.7-2.89-1.12-6.03-1.74-9.31-1.74-3.87,0-7.53.86-10.82,2.38.27.87.49,1.76.67,2.66,3.07-1.49,6.51-2.32,10.15-2.32Z"/>
		</g>
		<path id="copete" class="cls-5" d="m93.97,35.18s27.01,41.48,82.88,39.53c55.86-1.95,59.03-39.97,49.37-55.21-29.23-46.12-132.24,15.68-132.24,15.68Z"/>
		<g id="boca-f-v">
			<path id="fondo" class="cls-9" d="m148.25,167.11c7.31,0,22.26-3.43,23.07-.79.65,2.11-11.23,3.81-23.02,3.81-14.29,0-23.82-1.71-22.89-4.15.59-1.55,15.53,1.14,22.83,1.14Z"/>
			<path id="dientes" class="cls-2" d="m126.46,166.11s7.92,2.31,21.94,2.31c12.64,0,21.84-2.31,21.84-2.31"/>
			<path id="labios" class="cls-1" d="m148.35,167.11c7.31,0,22.26-3.43,23.07-.79.65,2.11-11.23,3.81-23.02,3.81-14.29,0-23.82-1.71-22.89-4.15.59-1.55,15.53,1.14,22.83,1.14Z"/>
		</g>
		<g id="boca-ah-i-small">
			<path id="fondo-2" class="cls-3" d="m146.93,163.56c5.36,0,16.14-4.08,17.01.69.39,2.15,1.93,18.44-16.88,19.75-14.41,1-17.91-17.71-16.78-20.09,1.39-2.92,11.3-.35,16.65-.35Z"/>
			<path id="dientes-2" class="cls-2" d="m131.44,163.27s8.99,2.23,15.58,2.23,14.84-3.31,14.84-3.31"/>
			<path id="labios-2" class="cls-1" d="m146.9,163.56c5.36,0,16.14-4.08,17.01.69.39,2.15,1.93,18.44-16.88,19.75-14.41,1-17.91-17.71-16.78-20.09,1.39-2.92,11.3-.35,16.65-.35Z"/>
		</g>
		<g id="boca-ee-uh-en-big">
			<path id="fondo-3" class="cls-3" d="m148.29,168.49c7.78,0,23.45-6.26,24.7,1.06.56,3.3-9.7,9.8-24.76,9.8s-25.78-6.68-24.14-10.33c2.02-4.49,16.41-.53,24.19-.53Z"/>
			<path id="dientes-3" class="cls-2" d="m126.63,167.25s12.27,3.23,21.84,3.23c7.75,0,20.04-4.48,20.04-4.48"/>
			<path id="labios-3" class="cls-1" d="m148.29,168.49c7.78,0,23.45-6.26,24.7,1.06.56,3.3-9.7,9.8-24.76,9.8s-25.78-6.68-24.14-10.33c2.02-4.49,16.41-.53,24.19-.53Z"/>
		</g>
		<g id="boca-oh">
			<path id="fondo-4" class="cls-3" d="m147.71,162.45c3.26,0,7.27,3.12,7.27,7.01,0,2.7-1.07,7.01-7.37,7.01s-7.5-4.53-7.5-7.01c0-3.95,4.35-7.01,7.6-7.01Z"/>
			<path id="dientes-4" class="cls-2" d="m143.7,164.01s2.37.45,4.1.45,3.91-.67,3.91-.67"/>
			<path id="labios-4" class="cls-1" d="m147.71,162.45c3.26,0,7.27,3.12,7.27,7.01,0,2.7-1.07,7.01-7.37,7.01s-7.5-4.53-7.5-7.01c0-3.95,4.35-7.01,7.6-7.01Z"/>
		</g>
		<g id="boca-oo-u-w-r-big">
			<path id="dientes-5" class="cls-2" d="m145.24,165.85s1.23-.85,2.96-.85c1.27,0,2.41.91,2.41.91"/>
			<path id="fondo-5" class="cls-3" d="m147.95,165c2.2,0,4.91,2.11,4.91,4.74,0,1.82-.72,4.74-4.98,4.74s-5.07-3.06-5.07-4.74c0-2.67,2.94-4.74,5.14-4.74Z"/>
			<path id="labios-5" class="cls-1" d="m147.92,165c2.2,0,4.91,2.11,4.91,4.74,0,1.82-.72,4.74-4.98,4.74s-5.07-3.06-5.07-4.74c0-2.67,2.94-4.74,5.14-4.74Z"/>
		</g>
		<g id="boca-oo-u-w-r-small">
			<path id="dientes-6" class="cls-2" d="m146.25,166.73s.86-.46,1.83-.46c.69,0,1.68.46,1.68.46"/>
			<path id="fondo-6" class="cls-3" d="m148,166.27c1.75,0,3.91,1.68,3.91,3.77,0,1.45-.58,3.77-3.96,3.77s-4.03-2.44-4.03-3.77c0-2.12,2.34-3.77,4.09-3.77Z"/>
			<path id="labios-6" class="cls-1" d="m147.92,166.27c1.75,0,3.91,1.68,3.91,3.77,0,1.45-.58,3.77-3.96,3.77s-4.03-2.44-4.03-3.77c0-2.12,2.34-3.77,4.09-3.77Z"/>
		</g>
		<g id="boca-m-b-p">
			<path id="dientes-7" class="cls-2" d="m145.89,167.49s1,0,1.97,0c.69,0,2.06-.03,2.06-.03"/>
			<path id="fondo-7" class="cls-9" d="m147.87,167.49c10.17,0,20.6-1.17,20.6-1.17,1.32-.52-10.92,1.15-20.6,1.17s-22.44-1.86-20.76-.99c0,0,10.72.99,20.76.99Z"/>
			<path id="labios-7" class="cls-1" d="m147.87,167.49c10.17,0,20.6-1.17,20.6-1.17,1.32-.52-10.92,1.15-20.6,1.17s-22.44-1.86-20.76-.99c0,0,10.72.99,20.76.99Z"/>
		</g>
		<g id="boca-ee-uh-en-small">
			<path id="fondo-8" class="cls-3" d="m147.77,168.45c7.01,0,21.11-4.08,22.23.69.51,2.15-8.73,6.39-22.28,6.39s-23.2-4.35-21.72-6.73c1.82-2.92,14.77-.35,21.77-.35Z"/>
			<path id="dientes-8" class="cls-2" d="m127.57,168.16s11.75,2.23,20.37,2.23,19.4-3.31,19.4-3.31"/>
			<path id="labios-8" class="cls-1" d="m147.77,168.45c7.01,0,21.11-4.08,22.23.69.51,2.15-8.73,6.39-22.28,6.39s-23.2-4.35-21.72-6.73c1.82-2.92,14.77-.35,21.77-.35Z"/>
		</g>
		<g id="boca-s-c-z-sh-ch">
			<path id="fondo-9" class="cls-3" d="m147.27,167.14c5.36,0,16.14-4.08,17.01.69.39,2.15-6.68,6.39-17.04,6.39s-17.75-4.35-16.62-6.73c1.39-2.92,11.3-.35,16.65-.35Z"/>
			<path id="dientes-9" class="cls-2" d="m131.81,166.85s8.99,2.23,15.58,2.23,14.84-3.31,14.84-3.31"/>
			<path id="labios-9" class="cls-1" d="m147.27,167.14c5.36,0,16.14-4.08,17.01.69.39,2.15-6.68,6.39-17.04,6.39s-17.75-4.35-16.62-6.73c1.39-2.92,11.3-.35,16.65-.35Z"/>
		</g>
		<g id="boca-ah-i-big">
			<path id="fondo-10" class="cls-3" d="m148.04,162.38c7.01,0,21.12-4.08,22.25.69.51,2.15,2.52,18.44-22.08,19.75-18.85,1-23.43-17.71-21.95-20.09,1.82-2.92,14.78-.35,21.79-.35Z"/>
			<path id="dientes-10" class="cls-2" d="m127.4,162.09s11.75,2.23,20.38,2.23,19.41-3.31,19.41-3.31"/>
			<path id="labios-10" class="cls-1" d="m147.62,162.38c7.01,0,21.12-4.08,22.25.69.51,2.15,2.52,18.44-22.08,19.75-18.85,1-23.43-17.71-21.95-20.09,1.82-2.92,14.78-.35,21.79-.35Z"/>
		</g>
		<g id="boca-cerrada">
			<path id="dientes-11" class="cls-2" d="m145.12,171.64s1.25.13,2.23.13c.69,0,2.06-.03,2.06-.03"/>
			<path id="fondo-11" class="cls-9" d="m147.71,171.75c10.17,0,16.2-5.69,16.2-5.69,1.32-.83-6.52,5.65-16.2,5.69-9.86.04-18.46-5.76-16.78-4.37,0,0,6.74,4.37,16.78,4.37Z"/>
			<path id="labios-11" class="cls-1" d="m147.71,171.75c10.17,0,16.2-5.69,16.2-5.69,1.32-.83-6.52,5.65-16.2,5.69s-18.46-5.76-16.78-4.37c0,0,6.74,4.37,16.78,4.37Z"/>
		</g>
		<g id="boca-actual">
			<path id="boca-actual-fondo" class="cls-3" d="M147.71,171.75c10.17,0,16.2-5.69,16.2-5.69,1.32-.83-6.52,5.65-16.2,5.69-9.86.04-18.46-5.76-16.78-4.37,0,0,6.74,4.37,16.78,4.37Z"/>
			<path id="boca-actual-dientes" class="cls-2" d="M145.12,171.64s1.25.13,2.23.13c.69,0,2.06-.03,2.06-.03" clip-path="url(#clip-boca)"/>
			<path id="boca-actual-labios" class="cls-1" d="M147.71,171.75c10.17,0,16.2-5.69,16.2-5.69,1.32-.83-6.52,5.65-16.2,5.69s-18.46-5.76-16.78-4.37c0,0,6.74,4.37,16.78,4.37Z"/>
		</g>
	</g>
</svg>