<?xml version="1.0" encoding="utf-8"?>
<!-- Generator: Adobe Illustrator 26.0.3, SVG Export Plug-In . SVG Version: 6.00 Build 0)  -->
<svg version="1.1" id="Layer_1" xmlns="http://www.w3.org/2000/svg" xmlns:xlink="http://www.w3.org/1999/xlink" x="0px" y="0px"
	 viewBox="0 0 410.2 109.1" style="enable-background:new 0 0 410.2 109.1;" xml:space="preserve">
<style type="text/css">
	.st0{fill:#19A572;}
</style>
<g>
	<path class="st0" d="M70.3,27.2C58,27.6,49.2,36.3,49.7,45.9c0.5,9.7,8.7,16.7,18.4,16.5c16-0.2,21.4-10.8,21.8-16.3
		C90.6,34.1,82,26.8,70.3,27.2z"/>
	<path class="st0" d="M57,0.1c-0.8,0-1.6,0-2.4,0c-20,0-38.4,10.9-48,28.5L5.8,30c-13.5,27-2.6,59.8,24.3,73.3
		c7.6,3.8,15.9,5.8,24.4,5.8c2.3,0,4.6-0.2,6.9-0.4c29.9-3.8,51-31.2,47.2-61.1C105.2,21.3,83.4,1.3,57,0.1z M62.3,73L62.3,73
		c0.2,5,1.1,10.6,1.5,23.7c0.1,1.2,0,2.5-0.5,3.6c-0.5,1-1.5,1.7-2.6,1.8h-0.2c-0.6,0-1.2-0.2-1.7-0.6c-0.9-0.9-1.6-2-1.9-3.2
		c-2.5-6.9-6.3-18.8-10.1-30.3c-1.1,1.8-2.1,4.5-3.9,7.4c-3,4.9-9.6,6.1-14.3,0.9c-2.9-3.2-1.5-10.3,5.5-11.8
		c4.1-0.9,8-1.5,10.8-2.3c-2.2-5.7-4.1-11.5-5.6-17.3c-5.2,1.4-9.3,5.1-14.9,5.2C11.4,50.3,7,38.6,10.8,30.5
		c0.1-0.3,0.3-0.5,0.4-0.8c2.4-4.3,7.1-7.4,14.2-6.9c7.6,0.5,12,10.7,16.1,13.8c2.1-4,4.9-7.5,8.4-10.3c1.8-1.3,3.9-2.4,6-3.2
		l-0.5-0.5C53,20.3,50,18,49.2,15.3c-1.1-3.8,1-7.2,5.1-8.6c0.8-0.3,1.6-0.4,2.4-0.4c3.2,0.2,5.9,2.6,6.4,5.8s-1.5,6.4-1.6,9.1
		c1.2-0.3,2.2-0.6,2.7-0.7c6.3-0.9,13.5-0.2,18.1,1.7c4.3,1.9,13.2,7.2,14,23.2C97,57.8,88,70.1,62.3,73z"/>
	<path class="st0" d="M146.4,34.6c-4.2,0-7.6,1.2-10,3.8c-0.1,0.1-0.3,0.3-0.4,0.5V35h-9.1v54.2c2,0.1,4-0.3,5.7-1.2
		c1-0.6,1.9-1.3,2.6-2.2c0.5-0.7,0.9-1.4,1.2-2.2v-19c2.5,2.7,5.8,4,9.9,4c9.3,0,16.4-6.6,16.4-17S155.7,34.6,146.4,34.6z
		 M144.8,60.7c-4.3,0-7.6-2.8-8.3-7.5c-0.1-1.1-0.1-2.2,0-3.3c0.6-4.7,4-7.5,8.3-7.5c4.8,0,8.4,3.4,8.4,9.1
		C153.2,57.3,149.6,60.7,144.8,60.7z"/>
	<path class="st0" d="M186.4,34.6c-10.5,0-18.2,7-18.2,17c0,9.9,7.6,17,18.2,17s18.1-7.1,18.1-17S196.9,34.6,186.4,34.6z
		 M186.4,60.7c-4.8,0-8.5-3.4-8.5-9.1s3.7-9.1,8.5-9.1s8.4,3.4,8.4,9.1C194.8,57.3,191.2,60.7,186.4,60.7z"/>
	<rect x="231.1" y="35.6" class="st0" width="9.6" height="33"/>
	<path class="st0" d="M235.9,20.3L235.9,20.3c-3.6,0-6,2.3-6,5.4c0,3,2.4,5.3,5.9,5.3s6-2.3,6-5.5C241.9,22.5,239.5,20.3,235.9,20.3
		z"/>
	<path class="st0" d="M298.4,18.6c-1,0.6-1.9,1.3-2.6,2.2c-0.5,0.7-0.9,1.4-1.2,2.2v45.5h9.6V17.3l0,0
		C302.2,17.2,300.2,17.6,298.4,18.6z"/>
	<path class="st0" d="M215.5,18.6c-1,0.6-1.9,1.3-2.6,2.2c-0.5,0.7-0.9,1.4-1.2,2.2v45.5h9.6V17.3l0,0
		C219.2,17.2,217.2,17.6,215.5,18.6z"/>
	<path class="st0" d="M328.7,34.6c-10.5,0-18.1,7-18.1,17c0,9.9,7.7,17,18.1,17s18.1-7.2,18.1-17S339.2,34.6,328.7,34.6z
		 M328.7,60.7c-4.8,0-8.5-3.4-8.5-9.1s3.7-9.1,8.5-9.1s8.4,3.4,8.4,9.1S333.5,60.7,328.7,60.7z"/>
	<path class="st0" d="M369.2,60.9c-2.6,0-4.1-1.5-4.1-4.4V43.2h8.2v-7.4H365v-8h-9.6v8h-5.1v7.4h5.1v13.5c0,7.9,4.5,11.8,12.3,11.8
		c2.7,0.1,5.5-0.6,7.8-2.1l-2.6-6.7C371.9,60.5,370.5,60.9,369.2,60.9z"/>
	<path class="st0" d="M394.4,34.6c-5.2,0-10.5,1.4-14.2,3.9c0,0.2,0.1,0.3,0.2,0.5l0.3,0.6c0.1,0.1,0.2,0.3,0.3,0.4v0.1
		c0.5,0.7,1.2,1.2,1.9,1.7c1,0.6,2,1.1,3.2,1.2c0.4,0.1,0.9,0.1,1.4,0.1c1.4-0.5,2.8-0.8,4.2-0.9c0.5,0,0.9-0.1,1.4-0.1
		c5.2,0,7.6,2.4,7.6,6.5H393c-5.9,0-9.8,1.4-11.9,3.7c-1.5,1.7-2.3,3.9-2.2,6.1c0,5.7,4.6,10,12.3,10c4.8,0,8.3-1.6,10.1-4.6v4.1
		h8.9V49.2C410.2,39.2,404.4,34.6,394.4,34.6z M400.7,57.6c-1.1,3-3.9,4.5-7,4.5c-3.4,0-5.4-1.6-5.4-4c0-2.2,1.4-3.9,5.9-3.9h6.5
		V57.6z"/>
	<path class="st0" d="M279,64.7l-0.5-0.3c1.4-1.2,2.6-2.6,3.6-4.2c0.5-0.9,1-1.8,1.3-2.7c0.7-1.9,1-4,1-6c0.1-3.1-0.8-6.1-2.3-8.8
		c-0.9-1.4-1.9-2.7-3.2-3.8c0.5-0.2,1.1-0.5,1.5-0.8c1.6-0.9,2.9-2.2,3.9-3.7c0.9-1.4,1.4-3,1.4-4.6c0-1.1-0.3-2.2-1-3
		s-1.7-1.3-2.8-1.2c-0.8,0-1.6,0.2-2.4,0.5s-1.5,0.8-2.2,1.3c0.7,1.1,1.1,2.3,1.2,3.6c0,0.7-0.1,1.5-0.4,2.1s-0.6,1.2-1.1,1.7
		c-1.6,1.5-4.1,0.7-4.3,0.6v0.1l-2.3-0.6c-1.3-0.3-2.7-0.4-4.1-0.4c-3.2-0.1-6.5,0.7-9.4,2.2c-2.7,1.4-4.9,3.4-6.5,6
		c-3.1,5.4-3.1,12.1,0,17.5c1.4,2.2,3.2,4.1,5.5,5.5c0.3,0.2,0.7,0.4,1,0.6c2.9,1.5,6.1,2.2,9.4,2.2c0.3,0,0.7,0,1,0h0.1
		c5.5,0.2,8.5,2.4,8.8,5.9c0,0.2,0,0.5,0,0.7v0.3c-0.4,1.5-1.2,2.9-2.5,3.9l-0.3,0.2c-2,1.2-4.4,1.8-6.8,1.6
		c-2.6-0.1-5.2-0.9-7.5-2.1c-0.5-0.3-1-0.6-1.4-0.8c-0.4-0.3-0.9-0.6-1.3-0.9s-0.6-0.5-0.8-0.7l-0.4-0.3c-0.1,0.2-0.3,0.5-0.4,0.7
		c-0.3,0.5-0.6,1.1-0.9,1.6v0.1c-0.4,0.7-0.8,1.5-1.2,2.2l-1.4,2.4l0.2,0.3c0.3,0.4,0.7,0.8,1.1,1.1l0.2,0.2l0.1,0.1
		c1.8,1.4,3.9,2.4,6,3l0.4,0.1c2.6,0.7,5.3,1,8.1,1c4.9,0,10.6-1.7,14.5-5.3c0.7-0.6,1.3-1.4,1.9-2.2c2.8-3.9,2.7-9.2-0.1-13
		C282.5,67,280.9,65.6,279,64.7z M274.7,51.6c0.1,2.4-0.7,4.8-2.4,6.6h-0.1c-1.4,1.4-3.2,2.3-5.2,2.4c-0.3,0-0.5,0-0.8,0
		c-2.3,0.1-4.5-0.8-6.1-2.5c-1.6-1.8-2.5-4.1-2.4-6.6c-0.1-2.5,0.8-4.9,2.4-6.7c1.5-1.5,3.5-2.4,5.6-2.5h0.4c2.3-0.1,4.5,0.8,6,2.5
		c0.1,0.1,0.2,0.2,0.3,0.4C274.1,47,274.8,49.3,274.7,51.6z"/>
</g>
</svg>
